<mxfile host="app.diagrams.net" modified="2023-09-06T17:48:01.859Z" agent="Mozilla/5.0 (Macintosh; Intel Mac OS X 10_15_7) AppleWebKit/537.36 (KHTML, like Gecko) Chrome/116.0.0.0 Safari/537.36" etag="fBWJekvpveCsJfKmtz60" version="21.6.6" type="device">
  <diagram name="Page-1" id="EF5rlrziwOSf3NxxdQdW">
    <mxGraphModel dx="1853" dy="1855" grid="1" gridSize="10" guides="1" tooltips="1" connect="1" arrows="1" fold="1" page="1" pageScale="1" pageWidth="827" pageHeight="1169" math="0" shadow="0">
      <root>
        <mxCell id="0" />
        <mxCell id="1" parent="0" />
        <mxCell id="pfrVNP-j8xE_fyfq85P1-1" value="HyDec [Experiment]" style="rounded=0;whiteSpace=wrap;html=1;align=left;verticalAlign=top;fontStyle=0" vertex="1" parent="1">
          <mxGeometry x="190" y="150" width="510" height="190" as="geometry" />
        </mxCell>
        <mxCell id="pfrVNP-j8xE_fyfq85P1-15" style="edgeStyle=orthogonalEdgeStyle;rounded=0;orthogonalLoop=1;jettySize=auto;html=1;exitX=0.5;exitY=1;exitDx=0;exitDy=0;entryX=0.5;entryY=0;entryDx=0;entryDy=0;dashed=1;" edge="1" parent="1" source="pfrVNP-j8xE_fyfq85P1-29" target="pfrVNP-j8xE_fyfq85P1-6">
          <mxGeometry relative="1" as="geometry" />
        </mxCell>
        <mxCell id="pfrVNP-j8xE_fyfq85P1-16" style="edgeStyle=orthogonalEdgeStyle;rounded=0;orthogonalLoop=1;jettySize=auto;html=1;exitX=0.5;exitY=1;exitDx=0;exitDy=0;entryX=0.5;entryY=0;entryDx=0;entryDy=0;dashed=1;" edge="1" parent="1" source="pfrVNP-j8xE_fyfq85P1-29" target="pfrVNP-j8xE_fyfq85P1-9">
          <mxGeometry relative="1" as="geometry" />
        </mxCell>
        <mxCell id="pfrVNP-j8xE_fyfq85P1-17" style="edgeStyle=orthogonalEdgeStyle;rounded=0;orthogonalLoop=1;jettySize=auto;html=1;exitX=0.5;exitY=1;exitDx=0;exitDy=0;entryX=0.5;entryY=0;entryDx=0;entryDy=0;dashed=1;" edge="1" parent="1" source="pfrVNP-j8xE_fyfq85P1-29" target="pfrVNP-j8xE_fyfq85P1-11">
          <mxGeometry relative="1" as="geometry" />
        </mxCell>
        <mxCell id="pfrVNP-j8xE_fyfq85P1-18" style="edgeStyle=orthogonalEdgeStyle;rounded=0;orthogonalLoop=1;jettySize=auto;html=1;exitX=0.5;exitY=1;exitDx=0;exitDy=0;entryX=0.5;entryY=0;entryDx=0;entryDy=0;dashed=1;" edge="1" parent="1" source="pfrVNP-j8xE_fyfq85P1-29" target="pfrVNP-j8xE_fyfq85P1-13">
          <mxGeometry relative="1" as="geometry" />
        </mxCell>
        <mxCell id="pfrVNP-j8xE_fyfq85P1-19" style="edgeStyle=orthogonalEdgeStyle;rounded=0;orthogonalLoop=1;jettySize=auto;html=1;exitX=0.5;exitY=1;exitDx=0;exitDy=0;entryX=0.5;entryY=0;entryDx=0;entryDy=0;dashed=1;" edge="1" parent="1" source="pfrVNP-j8xE_fyfq85P1-29" target="pfrVNP-j8xE_fyfq85P1-14">
          <mxGeometry relative="1" as="geometry">
            <Array as="points">
              <mxPoint x="280" y="380" />
              <mxPoint x="-30" y="380" />
            </Array>
          </mxGeometry>
        </mxCell>
        <mxCell id="pfrVNP-j8xE_fyfq85P1-3" style="edgeStyle=orthogonalEdgeStyle;rounded=0;orthogonalLoop=1;jettySize=auto;html=1;exitX=1;exitY=0.5;exitDx=0;exitDy=0;entryX=0.5;entryY=0;entryDx=0;entryDy=0;" edge="1" parent="1" source="pfrVNP-j8xE_fyfq85P1-2" target="pfrVNP-j8xE_fyfq85P1-29">
          <mxGeometry relative="1" as="geometry" />
        </mxCell>
        <mxCell id="pfrVNP-j8xE_fyfq85P1-32" style="edgeStyle=orthogonalEdgeStyle;rounded=0;orthogonalLoop=1;jettySize=auto;html=1;exitX=1;exitY=0.5;exitDx=0;exitDy=0;entryX=0.5;entryY=0;entryDx=0;entryDy=0;" edge="1" parent="1" source="pfrVNP-j8xE_fyfq85P1-2" target="pfrVNP-j8xE_fyfq85P1-30">
          <mxGeometry relative="1" as="geometry" />
        </mxCell>
        <mxCell id="pfrVNP-j8xE_fyfq85P1-33" style="edgeStyle=orthogonalEdgeStyle;rounded=0;orthogonalLoop=1;jettySize=auto;html=1;exitX=1;exitY=0.5;exitDx=0;exitDy=0;entryX=0.5;entryY=0;entryDx=0;entryDy=0;" edge="1" parent="1" source="pfrVNP-j8xE_fyfq85P1-2" target="pfrVNP-j8xE_fyfq85P1-31">
          <mxGeometry relative="1" as="geometry" />
        </mxCell>
        <mxCell id="pfrVNP-j8xE_fyfq85P1-2" value="Hyper-parameters [input or file]" style="ellipse;whiteSpace=wrap;html=1;fillColor=#dae8fc;strokeColor=#6c8ebf;" vertex="1" parent="1">
          <mxGeometry x="-90" y="160" width="120" height="80" as="geometry" />
        </mxCell>
        <mxCell id="pfrVNP-j8xE_fyfq85P1-4" value="MetaData [file]" style="ellipse;whiteSpace=wrap;html=1;fillColor=#d5e8d4;strokeColor=#82b366;" vertex="1" parent="1">
          <mxGeometry x="900" y="110" width="120" height="80" as="geometry" />
        </mxCell>
        <mxCell id="pfrVNP-j8xE_fyfq85P1-5" value="dynamic analysis&lt;br&gt;NxN dependency matrix" style="shape=cylinder3;whiteSpace=wrap;html=1;boundedLbl=1;backgroundOutline=1;size=15;fillColor=#f8cecc;strokeColor=#b85450;" vertex="1" parent="1">
          <mxGeometry y="570" width="130" height="120" as="geometry" />
        </mxCell>
        <mxCell id="pfrVNP-j8xE_fyfq85P1-20" style="edgeStyle=orthogonalEdgeStyle;rounded=0;orthogonalLoop=1;jettySize=auto;html=1;exitX=0.5;exitY=1;exitDx=0;exitDy=0;entryX=0.5;entryY=0;entryDx=0;entryDy=0;entryPerimeter=0;dashed=1;" edge="1" parent="1" source="pfrVNP-j8xE_fyfq85P1-6" target="pfrVNP-j8xE_fyfq85P1-5">
          <mxGeometry relative="1" as="geometry" />
        </mxCell>
        <mxCell id="pfrVNP-j8xE_fyfq85P1-21" style="edgeStyle=orthogonalEdgeStyle;rounded=0;orthogonalLoop=1;jettySize=auto;html=1;exitX=0.5;exitY=1;exitDx=0;exitDy=0;entryX=0.5;entryY=0;entryDx=0;entryDy=0;entryPerimeter=0;dashed=1;" edge="1" parent="1" source="pfrVNP-j8xE_fyfq85P1-6" target="pfrVNP-j8xE_fyfq85P1-7">
          <mxGeometry relative="1" as="geometry" />
        </mxCell>
        <mxCell id="pfrVNP-j8xE_fyfq85P1-6" value="DependencyAnalysis" style="rounded=0;whiteSpace=wrap;html=1;" vertex="1" parent="1">
          <mxGeometry x="90" y="470" width="120" height="60" as="geometry" />
        </mxCell>
        <mxCell id="pfrVNP-j8xE_fyfq85P1-7" value="structural analysis&lt;br&gt;NxN dependency matrix" style="shape=cylinder3;whiteSpace=wrap;html=1;boundedLbl=1;backgroundOutline=1;size=15;fillColor=#f8cecc;strokeColor=#b85450;" vertex="1" parent="1">
          <mxGeometry x="160" y="570" width="130" height="120" as="geometry" />
        </mxCell>
        <mxCell id="pfrVNP-j8xE_fyfq85P1-8" value="semantic analysis&lt;br&gt;NxV tokens count/freq matrix" style="shape=cylinder3;whiteSpace=wrap;html=1;boundedLbl=1;backgroundOutline=1;size=15;fillColor=#f8cecc;strokeColor=#b85450;" vertex="1" parent="1">
          <mxGeometry x="325" y="570" width="130" height="120" as="geometry" />
        </mxCell>
        <mxCell id="pfrVNP-j8xE_fyfq85P1-22" style="edgeStyle=orthogonalEdgeStyle;rounded=0;orthogonalLoop=1;jettySize=auto;html=1;exitX=0.5;exitY=1;exitDx=0;exitDy=0;entryX=0.5;entryY=0;entryDx=0;entryDy=0;entryPerimeter=0;dashed=1;" edge="1" parent="1" source="pfrVNP-j8xE_fyfq85P1-9" target="pfrVNP-j8xE_fyfq85P1-8">
          <mxGeometry relative="1" as="geometry" />
        </mxCell>
        <mxCell id="pfrVNP-j8xE_fyfq85P1-9" value="TFIDFAnalysis" style="rounded=0;whiteSpace=wrap;html=1;" vertex="1" parent="1">
          <mxGeometry x="330" y="470" width="120" height="60" as="geometry" />
        </mxCell>
        <mxCell id="pfrVNP-j8xE_fyfq85P1-10" value="word embedding analysis&lt;br&gt;NxV text matrix" style="shape=cylinder3;whiteSpace=wrap;html=1;boundedLbl=1;backgroundOutline=1;size=15;fillColor=#f8cecc;strokeColor=#b85450;" vertex="1" parent="1">
          <mxGeometry x="502.5" y="570" width="130" height="120" as="geometry" />
        </mxCell>
        <mxCell id="pfrVNP-j8xE_fyfq85P1-23" style="edgeStyle=orthogonalEdgeStyle;rounded=0;orthogonalLoop=1;jettySize=auto;html=1;exitX=0.5;exitY=1;exitDx=0;exitDy=0;entryX=0.5;entryY=0;entryDx=0;entryDy=0;entryPerimeter=0;dashed=1;" edge="1" parent="1" source="pfrVNP-j8xE_fyfq85P1-11" target="pfrVNP-j8xE_fyfq85P1-10">
          <mxGeometry relative="1" as="geometry" />
        </mxCell>
        <mxCell id="pfrVNP-j8xE_fyfq85P1-11" value="WordEmbeddingAnalysis" style="rounded=0;whiteSpace=wrap;html=1;" vertex="1" parent="1">
          <mxGeometry x="495" y="470" width="145" height="60" as="geometry" />
        </mxCell>
        <mxCell id="pfrVNP-j8xE_fyfq85P1-12" value="BERT analysis&lt;br&gt;NxV text matrix" style="shape=cylinder3;whiteSpace=wrap;html=1;boundedLbl=1;backgroundOutline=1;size=15;fillColor=#f8cecc;strokeColor=#b85450;" vertex="1" parent="1">
          <mxGeometry x="677.5" y="570" width="130" height="120" as="geometry" />
        </mxCell>
        <mxCell id="pfrVNP-j8xE_fyfq85P1-24" style="edgeStyle=orthogonalEdgeStyle;rounded=0;orthogonalLoop=1;jettySize=auto;html=1;exitX=0.5;exitY=1;exitDx=0;exitDy=0;entryX=0.5;entryY=0;entryDx=0;entryDy=0;entryPerimeter=0;dashed=1;" edge="1" parent="1" source="pfrVNP-j8xE_fyfq85P1-13" target="pfrVNP-j8xE_fyfq85P1-12">
          <mxGeometry relative="1" as="geometry" />
        </mxCell>
        <mxCell id="pfrVNP-j8xE_fyfq85P1-13" value="BertAnalysis" style="rounded=0;whiteSpace=wrap;html=1;" vertex="1" parent="1">
          <mxGeometry x="670" y="470" width="145" height="60" as="geometry" />
        </mxCell>
        <mxCell id="pfrVNP-j8xE_fyfq85P1-25" style="edgeStyle=orthogonalEdgeStyle;rounded=0;orthogonalLoop=1;jettySize=auto;html=1;exitX=1;exitY=0.5;exitDx=0;exitDy=0;entryX=0.25;entryY=0;entryDx=0;entryDy=0;dashed=1;dashPattern=1 2;endArrow=open;endFill=0;" edge="1" parent="1" source="pfrVNP-j8xE_fyfq85P1-14" target="pfrVNP-j8xE_fyfq85P1-6">
          <mxGeometry relative="1" as="geometry" />
        </mxCell>
        <mxCell id="pfrVNP-j8xE_fyfq85P1-26" style="edgeStyle=orthogonalEdgeStyle;rounded=0;orthogonalLoop=1;jettySize=auto;html=1;exitX=1;exitY=0.5;exitDx=0;exitDy=0;entryX=0.25;entryY=0;entryDx=0;entryDy=0;dashed=1;dashPattern=1 2;endArrow=open;endFill=0;" edge="1" parent="1" source="pfrVNP-j8xE_fyfq85P1-14" target="pfrVNP-j8xE_fyfq85P1-9">
          <mxGeometry relative="1" as="geometry" />
        </mxCell>
        <mxCell id="pfrVNP-j8xE_fyfq85P1-27" style="edgeStyle=orthogonalEdgeStyle;rounded=0;orthogonalLoop=1;jettySize=auto;html=1;exitX=1;exitY=0.5;exitDx=0;exitDy=0;entryX=0.25;entryY=0;entryDx=0;entryDy=0;dashed=1;dashPattern=1 2;endArrow=open;endFill=0;" edge="1" parent="1" source="pfrVNP-j8xE_fyfq85P1-14" target="pfrVNP-j8xE_fyfq85P1-11">
          <mxGeometry relative="1" as="geometry" />
        </mxCell>
        <mxCell id="pfrVNP-j8xE_fyfq85P1-28" style="edgeStyle=orthogonalEdgeStyle;rounded=0;orthogonalLoop=1;jettySize=auto;html=1;exitX=1;exitY=0.5;exitDx=0;exitDy=0;entryX=0.25;entryY=0;entryDx=0;entryDy=0;dashed=1;dashPattern=1 2;endArrow=open;endFill=0;" edge="1" parent="1" source="pfrVNP-j8xE_fyfq85P1-14" target="pfrVNP-j8xE_fyfq85P1-13">
          <mxGeometry relative="1" as="geometry" />
        </mxCell>
        <mxCell id="pfrVNP-j8xE_fyfq85P1-14" value="SumAnalysis" style="rounded=0;whiteSpace=wrap;html=1;" vertex="1" parent="1">
          <mxGeometry x="-90" y="410" width="120" height="60" as="geometry" />
        </mxCell>
        <mxCell id="pfrVNP-j8xE_fyfq85P1-34" style="edgeStyle=orthogonalEdgeStyle;rounded=0;orthogonalLoop=1;jettySize=auto;html=1;exitX=1;exitY=0.5;exitDx=0;exitDy=0;entryX=0;entryY=0.5;entryDx=0;entryDy=0;shape=flexArrow;" edge="1" parent="1" source="pfrVNP-j8xE_fyfq85P1-29" target="pfrVNP-j8xE_fyfq85P1-30">
          <mxGeometry relative="1" as="geometry" />
        </mxCell>
        <mxCell id="pfrVNP-j8xE_fyfq85P1-29" value="analysis" style="shape=parallelogram;perimeter=parallelogramPerimeter;whiteSpace=wrap;html=1;fixedSize=1;" vertex="1" parent="1">
          <mxGeometry x="220" y="230" width="120" height="60" as="geometry" />
        </mxCell>
        <mxCell id="pfrVNP-j8xE_fyfq85P1-36" style="edgeStyle=orthogonalEdgeStyle;rounded=0;orthogonalLoop=1;jettySize=auto;html=1;exitX=1;exitY=0.5;exitDx=0;exitDy=0;entryX=0;entryY=0.5;entryDx=0;entryDy=0;shape=flexArrow;" edge="1" parent="1" source="pfrVNP-j8xE_fyfq85P1-30" target="pfrVNP-j8xE_fyfq85P1-31">
          <mxGeometry relative="1" as="geometry" />
        </mxCell>
        <mxCell id="pfrVNP-j8xE_fyfq85P1-30" value="clustering&lt;br&gt;[HybridDecomp]" style="shape=parallelogram;perimeter=parallelogramPerimeter;whiteSpace=wrap;html=1;fixedSize=1;" vertex="1" parent="1">
          <mxGeometry x="375" y="230" width="120" height="60" as="geometry" />
        </mxCell>
        <mxCell id="pfrVNP-j8xE_fyfq85P1-39" style="edgeStyle=orthogonalEdgeStyle;rounded=0;orthogonalLoop=1;jettySize=auto;html=1;exitX=1;exitY=0.5;exitDx=0;exitDy=0;entryX=0;entryY=0.5;entryDx=0;entryDy=0;" edge="1" parent="1" source="pfrVNP-j8xE_fyfq85P1-31" target="pfrVNP-j8xE_fyfq85P1-4">
          <mxGeometry relative="1" as="geometry" />
        </mxCell>
        <mxCell id="pfrVNP-j8xE_fyfq85P1-40" style="edgeStyle=orthogonalEdgeStyle;rounded=0;orthogonalLoop=1;jettySize=auto;html=1;exitX=1;exitY=0.5;exitDx=0;exitDy=0;entryX=0;entryY=0.5;entryDx=0;entryDy=0;" edge="1" parent="1" source="pfrVNP-j8xE_fyfq85P1-31" target="pfrVNP-j8xE_fyfq85P1-37">
          <mxGeometry relative="1" as="geometry">
            <mxPoint x="840" y="200" as="targetPoint" />
          </mxGeometry>
        </mxCell>
        <mxCell id="pfrVNP-j8xE_fyfq85P1-41" style="edgeStyle=orthogonalEdgeStyle;rounded=0;orthogonalLoop=1;jettySize=auto;html=1;exitX=1;exitY=0.5;exitDx=0;exitDy=0;entryX=0;entryY=0.5;entryDx=0;entryDy=0;" edge="1" parent="1" source="pfrVNP-j8xE_fyfq85P1-31" target="pfrVNP-j8xE_fyfq85P1-38">
          <mxGeometry relative="1" as="geometry" />
        </mxCell>
        <mxCell id="pfrVNP-j8xE_fyfq85P1-31" value="evaluation&lt;br&gt;[EvaluationHandler]" style="shape=parallelogram;perimeter=parallelogramPerimeter;whiteSpace=wrap;html=1;fixedSize=1;" vertex="1" parent="1">
          <mxGeometry x="530" y="230" width="140" height="60" as="geometry" />
        </mxCell>
        <mxCell id="pfrVNP-j8xE_fyfq85P1-37" value="decomposition &lt;br&gt;layers [file]" style="ellipse;whiteSpace=wrap;html=1;fillColor=#d5e8d4;strokeColor=#82b366;" vertex="1" parent="1">
          <mxGeometry x="900" y="220" width="120" height="80" as="geometry" />
        </mxCell>
        <mxCell id="pfrVNP-j8xE_fyfq85P1-38" value="Evaluation results [file]" style="ellipse;whiteSpace=wrap;html=1;fillColor=#d5e8d4;strokeColor=#82b366;" vertex="1" parent="1">
          <mxGeometry x="900" y="340" width="120" height="80" as="geometry" />
        </mxCell>
        <mxCell id="pfrVNP-j8xE_fyfq85P1-45" value="Legend" style="swimlane;whiteSpace=wrap;html=1;" vertex="1" parent="1">
          <mxGeometry x="-50" y="-140" width="200" height="220" as="geometry" />
        </mxCell>
        <mxCell id="pfrVNP-j8xE_fyfq85P1-42" value="User input" style="rounded=1;whiteSpace=wrap;html=1;fillColor=#dae8fc;strokeColor=#6c8ebf;" vertex="1" parent="pfrVNP-j8xE_fyfq85P1-45">
          <mxGeometry x="40" y="30" width="120" height="60" as="geometry" />
        </mxCell>
        <mxCell id="pfrVNP-j8xE_fyfq85P1-43" value="Stored data" style="rounded=1;whiteSpace=wrap;html=1;fillColor=#f8cecc;strokeColor=#b85450;" vertex="1" parent="pfrVNP-j8xE_fyfq85P1-45">
          <mxGeometry x="40" y="90" width="120" height="60" as="geometry" />
        </mxCell>
        <mxCell id="pfrVNP-j8xE_fyfq85P1-44" value="Output" style="rounded=1;whiteSpace=wrap;html=1;fillColor=#d5e8d4;strokeColor=#82b366;" vertex="1" parent="pfrVNP-j8xE_fyfq85P1-45">
          <mxGeometry x="40" y="150" width="120" height="60" as="geometry" />
        </mxCell>
      </root>
    </mxGraphModel>
  </diagram>
</mxfile>
